<svg width="294" height="260" viewBox="0 0 294 260" fill="none" xmlns="http://www.w3.org/2000/svg">
<path d="M238.948 19.424C211.096 3.71237 178.801 -2.21661 147.499 1.62487C166.465 3.95709 185.012 9.88607 201.92 19.424C235.203 38.9348 256.627 80.6346 256.627 129.604C256.627 178.955 235.586 220.655 201.92 240.165C184.773 249.819 166.377 255.834 147.633 258.215C178.772 262.157 210.57 256.143 238.948 240.165C272.614 220.655 293.655 178.955 293.655 129.604C293.655 80.6346 272.232 38.9348 238.948 19.424Z" fill="#82CEF6"/>
<path d="M37.3352 129.986C37.3352 80.6346 58.7591 38.9348 92.8075 19.424C109.86 9.88607 128.496 3.95709 147.498 1.62487C116.255 -2.21661 83.8692 3.71237 55.7788 19.424C21.7303 38.9348 0.306641 80.6346 0.306641 129.986C0.306641 178.955 21.7303 221.419 55.7788 240.165C84.6343 256.143 116.611 262.157 147.633 258.215C128.818 255.834 110.243 249.819 92.8075 240.165C58.7591 221.419 37.3352 178.955 37.3352 129.986Z" fill="#4450F3"/>
<path d="M256.626 129.604C256.626 80.6348 235.203 38.935 201.919 19.4241C185.011 9.88621 166.465 3.95722 147.498 1.625C128.496 3.95722 109.86 9.88621 92.8073 19.4241C58.7588 38.935 37.335 80.6348 37.335 129.986C37.335 178.955 58.7588 221.42 92.8073 240.165C110.242 249.82 128.817 255.834 147.633 258.215C166.377 255.834 184.772 249.82 201.919 240.165C235.585 220.655 256.626 178.955 256.626 129.604Z" fill="#1A9EF3"/>
<path d="M256.626 129.604C256.626 80.6348 235.203 38.935 201.919 19.4241C185.011 9.88621 166.465 3.95722 147.498 1.625C128.496 3.95722 109.86 9.88621 92.8073 19.4241C58.7588 38.935 37.335 80.6348 37.335 129.986C37.335 178.955 58.7588 221.42 92.8073 240.165C110.242 249.82 128.817 255.834 147.633 258.215C166.377 255.834 184.772 249.82 201.919 240.165C235.585 220.655 256.626 178.955 256.626 129.604Z" fill="#1A9EF3"/>
<path d="M169.885 141.052C165.563 138.061 156.588 136.399 146.948 136.399C137.308 136.399 128.333 138.061 124.012 141.052C119.358 144.044 123.014 162.992 125.341 167.978C129.995 176.621 138.305 181.275 146.948 181.275C155.591 181.275 163.901 176.621 168.555 167.978C170.882 162.992 174.539 144.044 169.885 141.052ZM201.797 125.761C191.492 125.761 183.181 131.412 183.181 138.393C183.181 145.374 191.492 151.025 201.797 151.025C211.769 151.025 220.079 145.374 220.079 138.393C220.079 131.412 211.769 125.761 201.797 125.761ZM92.0997 125.761C82.1273 125.761 73.8169 131.412 73.8169 138.393C73.8169 145.374 82.1273 151.025 92.0997 151.025C102.405 151.025 110.715 145.374 110.715 138.393C110.715 131.412 102.405 125.761 92.0997 125.761ZM197.475 110.803C207.78 117.451 206.783 104.487 197.475 96.1765C191.159 90.8578 183.181 90.8578 177.198 96.1765C167.558 104.487 166.561 117.451 177.198 110.803C183.181 106.481 191.159 106.481 197.475 110.803ZM116.698 96.1765C110.715 90.8578 102.737 90.8578 96.4211 96.1765C87.1135 104.487 86.1163 117.451 96.4211 110.803C102.737 106.481 110.715 106.481 116.698 110.803C127.336 117.451 126.338 104.487 116.698 96.1765Z" fill="white"/>
</svg>