<svg width="284" height="281" viewBox="0 0 284 281" fill="none" xmlns="http://www.w3.org/2000/svg">
<path fill-rule="evenodd" clip-rule="evenodd" d="M0.100586 129.112C0.100586 79.9306 21.1969 38.3743 54.725 18.9305C99.178 -6.23204 154.556 -6.23204 198.632 18.9305C227.31 35.9438 247.047 69.8871 251.533 110.799C248.239 80.7599 236.723 54.4776 219.483 35.8953C177.363 16.3614 127.135 18.1857 86.1805 41.3681C52.6524 60.8119 31.556 102.368 31.556 151.55C31.556 188.44 43.6119 221.627 63.9806 243.699C60.8633 242.218 57.7764 240.622 54.725 238.912C21.1969 220.231 0.100586 177.912 0.100586 129.112ZM252.262 137.859C252.422 134.849 252.503 131.805 252.503 128.731Z" fill="#DC6950"/>
<path fill-rule="evenodd" clip-rule="evenodd" d="M31.5571 151.55C31.5571 102.368 52.6535 60.8118 86.1816 41.368C109.152 28.3654 135.041 22.0818 160.779 22.5173C136.701 22.9236 112.665 29.2072 91.1814 41.3681C57.6533 60.8119 36.557 102.368 36.557 151.55C36.557 190.642 50.0945 225.574 72.7156 247.529C113.958 264.042 159.582 261.173 198.631 238.922C231.783 219.479 252.502 177.922 252.502 128.741C252.502 91.278 240.069 58.0842 219.465 35.8862C223.069 37.5571 226.614 39.3844 230.089 41.368C262.863 60.8118 283.96 102.368 283.96 151.168C283.96 200.35 263.24 241.906 230.089 261.35C185.259 286.894 131.765 286.894 86.1816 261.35C52.6535 242.668 31.5571 200.35 31.5571 151.55Z" fill="#636DF7"/>
<path fill-rule="evenodd" clip-rule="evenodd" d="M219.483 35.8952C177.363 16.3613 127.135 18.1856 86.1806 41.368C52.6525 60.8118 31.5562 102.368 31.5562 151.55C31.5562 188.441 43.6125 221.628 63.9817 243.7C107.432 264.342 156.804 262.746 198.632 238.913C231.784 219.469 252.503 177.913 252.503 128.731C252.503 91.2789 240.077 58.0931 219.483 35.8952Z" fill="#FEA674"/>
<path d="M174.159 105.381C164.642 113.585 163.658 126.383 174.159 119.82C180.393 115.554 188.269 115.554 194.504 119.82C205.005 126.383 204.021 113.585 194.504 105.381C188.269 100.131 180.393 100.131 174.159 105.381ZM93.7605 105.381C84.244 113.585 83.5877 126.383 93.7605 119.82C99.9955 115.554 107.871 115.554 114.106 119.82C124.607 126.383 123.623 113.585 114.106 105.381C107.871 100.131 99.9955 100.131 93.7605 105.381ZM166.939 149.682C158.079 143.447 129.858 143.447 120.669 149.682C116.075 152.636 119.685 171.012 122.638 176.263C131.17 193.655 156.438 193.655 165.626 176.263C167.924 171.34 171.533 152.636 166.939 149.682Z" fill="#2A2A2A"/>
<path d="M198.768 159.524C208.917 159.524 217.145 153.941 217.145 147.054C217.145 140.167 208.917 134.584 198.768 134.584C188.619 134.584 180.392 140.167 180.392 147.054C180.392 153.941 188.619 159.524 198.768 159.524Z" fill="#2A2A2A"/>
<path d="M90.4777 159.524C100.627 159.524 108.854 153.941 108.854 147.054C108.854 140.167 100.627 134.584 90.4777 134.584C80.3286 134.584 72.1011 140.167 72.1011 147.054C72.1011 153.941 80.3286 159.524 90.4777 159.524Z" fill="#2A2A2A"/>
</svg>